# xmcd
# 
# Track frame offsets:
#     150
#     13122
#     25862
#     39300
#     52325
#     66507
#     78850
#     94470
#     104442
#     117110
# 
# Disc length: 1711
# 
# Revision: 1
# Processed by: cddbd v1.5.2PL0 Copyright (c) Steve Scherf et al.
# Submitted via: fre:ac v1.1beta1pre3
# 
DISCID=8406ad0a
DTITLE=Merle Haggard - Greatest Hits ( Cema ) ( I Take a Lot of Pride in What I Am )
DYEAR=1994
DGENRE=Country
TTITLE0=Swinging Doors
TTITLE1=Sing Me Back Home
TTITLE2=I'm a Lonesome Fugitive
TTITLE3=I Take a Lot of Pride in What I Am
TTITLE4=Branded Man
TTITLE5=Okie From Muskogee
TTITLE6=Hungry Eyes
TTITLE7=Mama Tried
TTITLE8=The Bottle Let Me Down
TTITLE9=( My Friends Are Gonna Be ) Strangers
EXTD=
EXTT0=
EXTT1=
EXTT2=
EXTT3=
EXTT4=
EXTT5=
EXTT6=
EXTT7=
EXTT8=
EXTT9=
PLAYORDER=
